{"title":"Foo.Fighters.Back.and.Forth.2011.DVDRip.XviD-NoZ","uid":6618785,"size":1468637753,"categoryP":"video","categoryS":"movies","magnet":"?xt=urn:btih:27810b0f8518fae189ad601466c50ceadd9d68f3&amp;dn=Foo.Fighters.Back.and.Forth.2011.DVDRip.XviD-NoZ&amp;tr=udp%3A%2F%2Ftracker.openbittorrent.com%3A80&amp;tr=udp%3A%2F%2Fopen.demonii.com%3A1337&amp;tr=udp%3A%2F%2Ftracker.coppersurfer.tk%3A6969&amp;tr=udp%3A%2F%2Fexodus.desync.com%3A6969","seeders":4,"leechers":0,"uploader":"onilz","files":-1,"time":1313907277,"description":"Foo.Fighters.Back.and.Forth.2011.DVDRip.XviD-NoZ\n===============================================================================\nFoo Fighters Back and Forth - Chronicles the 16 year history of the Foo Fighters: from the band\\'s very first songs created as cassette demos Dave Grohl recorded during his tenure as Nirvana\\'s drummer, through its ascent to their Grammy-winning, multi-platinum, arena and stadium headlining status as one of the biggest rock bands on the planet.\n===============================================================================\n\nMedia Info:\nGeneral\nFormat                           : AVI\nFormat/Info                      : Audio Video Interleave\nFile size                        : 1.37 GiB\nDuration                         : 1h 40mn\nOverall bit rate                 : 1 940 Kbps\nWriting application              : VirtualDubMod 1.5.4.1 (build 2178/release)\nWriting library                  : VirtualDubMod build 2178/release\n--------------------------------------------------------------------------------\nVideo\nFormat                           : MPEG-4 Visual\nCodec ID                         : XVID\nCodec ID/Hint                    : XviD\nDuration                         : 1h 40mn\nBit rate                         : 1 486 Kbps\nWidth                            : 624 pixels\nHeight                           : 352 pixels\nDisplay aspect ratio             : 16:9\nFrame rate                       : 23.976 fps\nResolution                       : 8 bits\nColorimetry                      : 4:2:0\nScan type                        : Progressive\nBits/(Pixel*Frame)               : 0.282\nStream size                      : 1.05 GiB (77%)\nWriting library                  : XviD 1.2.1 (UTC 2008-12-04)\n--------------------------------------------------------------------------------\nAudio\nFormat                           : AC-3\nFormat/Info                      : Audio Coding 3\nCodec ID                         : 2000\nDuration                         : 1h 40mn\nBit rate mode                    : Constant\nBit rate                         : 448 Kbps\nChannel(s)                       : 6 channels\nChannel positions                : Front: L C R, Surround: L R, LFE\nSampling rate                    : 48.0 KHz\nStream size                      : 323 MiB (23%)\nAlignment                        : Split accross interleaves\nInterleave, duration             : 96 ms (2.30 video frames)\nInterleave, preload duration     : 96 ms\nLanguage                         : English\n===============================================================================\n\nenjoy...\nPeace!","torrent":{"xt":"urn:btih:27810b0f8518fae189ad601466c50ceadd9d68f3","amp;dn":"Foo.Fighters.Back.and.Forth.2011.DVDRip.XviD-NoZ","amp;tr":["udp%3A%2F%2Ftracker.openbittorrent.com%3A80","udp%3A%2F%2Fopen.demonii.com%3A1337","udp%3A%2F%2Ftracker.coppersurfer.tk%3A6969","udp%3A%2F%2Fexodus.desync.com%3A6969"],"infoHash":"27810b0f8518fae189ad601466c50ceadd9d68f3","infoHashBuffer":{"type":"Buffer","data":[39,129,11,15,133,24,250,225,137,173,96,20,102,197,12,234,221,157,104,243]},"announce":[],"urlList":[]}}